<mxfile host="Electron" modified="2023-06-10T16:00:14.373Z" agent="Mozilla/5.0 (Macintosh; Intel Mac OS X 10_15_7) AppleWebKit/537.36 (KHTML, like Gecko) draw.io/21.2.8 Chrome/112.0.5615.165 Electron/24.2.0 Safari/537.36" etag="TlZ-8TcTBptx7b_9rbYz" version="21.2.8" type="device">
  <diagram name="Page-1" id="OJbzbdPVF9TulgYiM2Ar">
    <mxGraphModel dx="808" dy="854" grid="1" gridSize="10" guides="1" tooltips="1" connect="1" arrows="1" fold="1" page="1" pageScale="1" pageWidth="827" pageHeight="1169" math="0" shadow="0">
      <root>
        <mxCell id="0" />
        <mxCell id="1" parent="0" />
        <mxCell id="groSZJnspkA8zaFrXu-b-23" value="Pod" style="whiteSpace=wrap;html=1;sketch=1;curveFitting=1;jiggle=2;fontSize=15;fontStyle=1;labelPosition=center;verticalLabelPosition=bottom;align=center;verticalAlign=top;" parent="1" vertex="1">
          <mxGeometry x="110" y="290" width="180" height="380" as="geometry" />
        </mxCell>
        <mxCell id="groSZJnspkA8zaFrXu-b-17" style="vsdxID=13;fillColor=none;gradientColor=none;strokeColor=none;spacingTop=-3;spacingBottom=-3;spacingLeft=-3;spacingRight=-3;points=[];labelBackgroundColor=none;rounded=0;html=1;whiteSpace=wrap;" parent="1" vertex="1">
          <mxGeometry x="360" y="340" width="80" height="110" as="geometry" />
        </mxCell>
        <mxCell id="groSZJnspkA8zaFrXu-b-18" style="vsdxID=14;fillColor=#FFFFFF;gradientColor=none;shape=stencil(hZNNEoIwDIVP020nbYSha3/uwShIRwSnguLtBVtpU0V3Tfoe+ZIGhutrlV8KJuHamfZU3PWhqxhumJS6qQqju/HEcMtwXbamOJq2bw42vuSTcjqd29v0hcH6VoorNbkkPGxGALzinZXve2P1whlWPMucQVAHDNImXPhwoVI8RadAqnBhlvJEhVVr3QSQQAGRZ78IgdIBR0XxwhYo8RsvnAohXiiZJBxUVJbWnGc0V/RYGEvwe6N0KF6+MMMY0hvE57vIuREhKah/3eXhRDtDQf+u2Hjw61nqurbbHd7H6zym7K+A2yc=);strokeColor=none;spacingTop=-3;spacingBottom=-3;spacingLeft=-3;spacingRight=-3;points=[];labelBackgroundColor=none;rounded=0;html=1;whiteSpace=wrap;" parent="groSZJnspkA8zaFrXu-b-17" vertex="1">
          <mxGeometry x="1.0666666666666667" y="1.3095238095238095" width="77.86666666666666" height="107.38095238095237" as="geometry" />
        </mxCell>
        <mxCell id="groSZJnspkA8zaFrXu-b-19" style="vsdxID=15;fillColor=#FFFFFF;gradientColor=none;shape=stencil(lVTRcoMgEPwaXpmDQ5TnNPmPTGOqU6sZY9r076sF5cAhJm+47HJ7xwrD3bU6Xkom4Tr03Wf5U5+GiuEbk7Juq7Kvh3HFcM9wd+768qPvbu3Jfl+OE3NafXXf0wl3q1OGGzOpJPxaRHIs/oGD5b/feisQdl9rrnKnEJEE7tIiJueoHMlBipvMkXBNcpBQXOe0elO3xC1VWKTIeC4e2aWSGcq4VKHfsSnUod9RqGVomA4LY1aiPiLXIqpPTpbzBHVcnpjEFQkT3YfjIoLEeGO3RCFW1yZ9R9HdkgCkRxUHK/S6HcSt4MKjxpTwpgXlL21B2BLMk11aAvZKVIG9FFMIvRmz5HH2RztwkABgW1OfOYm6WbH6PfypcZklm6O7aDie81w0Pf/JZHqBWF2QXHpRJnS6PR9Ie9yI2Ljwr+q5bhr7KNP9+BUeIfuC4/4P);strokeColor=none;spacingTop=-3;spacingBottom=-3;spacingLeft=-3;spacingRight=-3;points=[];labelBackgroundColor=none;rounded=0;html=1;whiteSpace=wrap;" parent="groSZJnspkA8zaFrXu-b-17" vertex="1">
          <mxGeometry width="80" height="110" as="geometry" />
        </mxCell>
        <mxCell id="groSZJnspkA8zaFrXu-b-20" style="vsdxID=16;fillColor=#2d5967;gradientColor=none;shape=stencil(lVjLctswDPwaXzkkwec5Tf4j0zi1p26ccZI2/fuClUgRIEVFN1sGscACC1A+wN3b6fH1eNDy7f12/Xn8c356Px3g20Hr88vpeDu/46cD3B/g7vl6O/64XT9enqbvr4/JMn36df2dPHxO55SU6YyWf+fvWsT/Dx4m6+8ft8lccfv5gRZ+evCppwfOCzObzE/mE58wfTVRxDhbQG2xAgla2EBBJYWUFG8JCejv0M/xcn6pGKF8BC/sKDjGRszmJTaM3msaX+FwwEi2WYFFkrWj0ItXDpNxq+CAm0A/XUrNVrPss6aNGI2AQOzdRivWJzItIIDxH7XQgfLgrHCUh6CFs5QJZNj5EbxXIioGH4VXTA1SREfhvcyeRw2AVhaGsggisvSTZ0fxtV+sdInSRdYH2E6qzV8P829Uibxaxr7NThZ0LBEFr2ygVD4M2rA6MNNnxiJVtjCeY0XGgQ0uqEjI4cscyBKtFApouIvVmlpBSEPxa88zWDDCMfw6Sihdn2uc8Xn6lK1tYe213xIudiYM+egoF8+ETeEaJSSjo6NcA0KNO7dVrrFCMeV0lGtc9jxSLvqKw8nRUW7yzCZHR7kpSiaejnIxfzmeXI1yE7GawrfKxbA9F0Mj3VT7HcpVUei90tUmnxlJF7E865WOdBerr0u39rwu3RTltnSb/Le02Ghr9wF2/0PmDDngRRgyolnvIBuRslH3d+5cEVjjdoQznqFcsTnMAsuvWVaEQDFxWHhWgDCcU7ppPsUuWUi4Zbh4z2EyqY1W7qCdEVmOZOhlcy4j0gIDt41IO1lj1YfonkFr2cyHpt9xhGyXGB0NgTujMTk27WiMDF4uVtVoNG3eG5cawwteEbo6GrE0DLydjFsVr06ocoIl7psxo6rKLEmWGZAvk8N7+uYI2GtPR0zqv0js02ofl0ELyfSOgtBszji1WGVF2PJeNOjCWPbo19uw9ry+oeso1zf0dv7Nho64u9i8a9sw5DoP2nD8htcsaHxZkHsXtIesstGC9rbRTLufi9HX13Pld3071yGub+cm+WbZlhN9cjtT3bHX9lSz9pXVspsnll+zeFFWkbGV+ooIET8sf/w8ny+X6X+j+nf+RxE+mv5kgvt/);strokeColor=none;spacingTop=-3;spacingBottom=-3;spacingLeft=-3;spacingRight=-3;points=[];labelBackgroundColor=none;rounded=0;html=1;whiteSpace=wrap;" parent="groSZJnspkA8zaFrXu-b-17" vertex="1">
          <mxGeometry x="2.1333333333333333" y="2.619047619047619" width="75.73333333333333" height="104.76190476190476" as="geometry" />
        </mxCell>
        <mxCell id="groSZJnspkA8zaFrXu-b-28" style="edgeStyle=orthogonalEdgeStyle;orthogonalLoop=1;jettySize=auto;html=1;exitX=1;exitY=0.5;exitDx=0;exitDy=0;entryX=0.463;entryY=1.018;entryDx=0;entryDy=0;entryPerimeter=0;curved=1;sketch=1;curveFitting=1;jiggle=2;" parent="1" source="groSZJnspkA8zaFrXu-b-25" target="groSZJnspkA8zaFrXu-b-17" edge="1">
          <mxGeometry relative="1" as="geometry" />
        </mxCell>
        <mxCell id="groSZJnspkA8zaFrXu-b-29" value="Access" style="edgeLabel;html=1;align=left;verticalAlign=middle;resizable=0;points=[];labelBackgroundColor=none;labelPosition=right;verticalLabelPosition=middle;" parent="groSZJnspkA8zaFrXu-b-28" vertex="1" connectable="0">
          <mxGeometry x="-0.2001" y="22" relative="1" as="geometry">
            <mxPoint as="offset" />
          </mxGeometry>
        </mxCell>
        <mxCell id="groSZJnspkA8zaFrXu-b-27" value="Modify" style="edgeStyle=orthogonalEdgeStyle;orthogonalLoop=1;jettySize=auto;html=1;exitX=1;exitY=0.5;exitDx=0;exitDy=0;entryX=0;entryY=0.527;entryDx=0;entryDy=0;entryPerimeter=0;curved=1;sketch=1;curveFitting=1;jiggle=2;labelBackgroundColor=none;labelPosition=right;verticalLabelPosition=top;align=left;verticalAlign=bottom;" parent="1" source="groSZJnspkA8zaFrXu-b-26" target="groSZJnspkA8zaFrXu-b-17" edge="1">
          <mxGeometry relative="1" as="geometry" />
        </mxCell>
        <mxCell id="ONs9TYjD0su-SRe1lQR9-2" value="Application" style="sketch=0;outlineConnect=0;fontColor=#232F3E;gradientColor=none;strokeColor=#232F3E;fillColor=#ffffff;dashed=0;verticalLabelPosition=bottom;verticalAlign=top;align=center;html=1;fontSize=12;fontStyle=0;aspect=fixed;shape=mxgraph.aws4.resourceIcon;resIcon=mxgraph.aws4.application;" vertex="1" parent="1">
          <mxGeometry x="168.71" y="540" width="60" height="60" as="geometry" />
        </mxCell>
        <mxCell id="groSZJnspkA8zaFrXu-b-30" value="Execution&lt;br&gt;Sequence" style="shape=singleArrow;direction=south;whiteSpace=wrap;html=1;sketch=1;curveFitting=1;jiggle=2;fillColor=#e1d5e7;strokeColor=#9673a6;labelPosition=left;verticalLabelPosition=middle;align=right;verticalAlign=middle;" parent="1" vertex="1">
          <mxGeometry x="80" y="390" width="60" height="190" as="geometry" />
        </mxCell>
        <mxCell id="ONs9TYjD0su-SRe1lQR9-1" value="SQLcl + Liquibase" style="shape=image;verticalLabelPosition=bottom;labelBackgroundColor=default;verticalAlign=top;aspect=fixed;imageAspect=0;image=data:image/png,iVBORw0KGgoAAAANSUhEUgAAAFcAAABYCAYAAACAnmu5AAAAAXNSR0IArs4c6QAAAIRlWElmTU0AKgAAAAgABQESAAMAAAABAAEAAAEaAAUAAAABAAAASgEbAAUAAAABAAAAUgEoAAMAAAABAAIAAIdpAAQAAAABAAAAWgAAAAAAAABIAAAAAQAAAEgAAAABAAOgAQADAAAAAQABAACgAgAEAAAAAQAAAFegAwAEAAAAAQAAAFgAAAAA0jgWxgAAAAlwSFlzAAALEwAACxMBAJqcGAAAEFZJREFUeAHtnHtwXFUdx3/3sc/sJptH0yRN0tA29JECQn0BMkMVRWXQQSwOU6blIUUZxT/8Q0Edoo46jjK+Rh0YgRZGURAcdGSkVgW0/qEWSumLkrZpSNI8mue+9z6O399NNm2Tpt179252yexJb+/r3N8953N/93d+53fOXaJyKhMoEygTKBMoEygTKBMoEygTKBMoEygTKBMoEygTKBMoEygTKBNwjYDkmqQcBP30hRd85ojWZshiJZGol0gOCRIVJEsVuNyQhBkzJTkuCYpJZLytmeLoV267uTcH0SWZpaBwH3rq+csB6joAvBK1vwJLCxbZDgkhRDoVjx8VwtxjmvRPIdOLnfds6bEjo1h5XYf7w9/8aY1E+t2CpFsgvDmfigEspRJxMkH1rCRJeyRJPKVqymP337t57KxzJbTjGtwf/Pa59ZIpfxcCb3SjfgJAk8kE8fo8KS6R9Ijh1b/Veccd4+fJV5RTecN9+umnlbd17zdR+q9iUdyoBWsqayxrbo7plJCVzz549+bnc8y/INnygvvwww97ouGlz7qlrVxj0zQAFhqbO9gsKCEk+UsPbrvtZ9kDxV7balxmFzYaWvp9V8EaBiWdgeWiwQybP+58ZMd1s8tZrH3HcH/05LONkkT3uVVww9AtsFDZfETKkil9Jx8Bbl7rGK6sejeiIK7YWEPXLVMA3zfvuuGBv5vNVd6CXBDgGG51deg9LtyfdF2jFLwCt5IkSfKKDRuCbsnLR45juLVV4Tdl2fHlVpl1TaN0MplP+edcGwoGKBaN5tVQzxHq8IBjOh5FSTXUVju8LZGWyVA65S5YWZKpPlLluExuX+gYLhektjJM9dUR22XSMmnKpFO2rzvfBQy2ZWkteT3q+bIt6Lm8S7K0JkIBn5f6hkdIhyt1ocRQWWvdTAGfj5rqakoKLNcvb7gspLIiSKGAn05NTGKJkjEP5HQqRbrmHlif10N1VZXW/bkcpZZcgcuV4saNTcQS2LyJeIImYnGKJZJkTvutbF+5Acs3qYpC3GhVhSooiDemlJNrcLOVhCtEEVScF+7CJlJpGhkfp6gBzwBtuKbpOXdtVUUmj6LidfdYpicY8JLPU9pAsxx47TrcM4Uz6AqYC8kMU1XAN3NKN0yYDp0MU1iabUW+0CApgC/hDeC3wAOw+bp6Mzcs0kZB4c5XJ9ZIVXnnaOB89bjQcceuGIJXJdHFvFAFi3neMdyxWKypmAWf795s52/auHFivvMLedwx3LSWiZiwmaWWYskU7XhuV00plMsxXLhD/QOjpTV8xQ+bXcDKauXCvZkFoO8YbmUwMMzDMUNjJfEGYgRDUO/QsOX/LgC3nG7hGC5Lb6qrpShGDnoGh3Pq+uZUIgeZkukMHe8fhC/spzA6GKWS8nLFZFmii5oaqB9xhSM9fVQXqaRadEeVPEORDKeloZ5aGxsuwAkzIqZzTMUYp/+XpcGB4dHsqXllCIkSGVVeuTwSKYh9ywsul1pGR6G5vo5iiMsOjIzRMMxE5XQPjeMN3JFwkvDcSBMZeunEy04uv6AT3VDRQJctvdQ3PjDAYb3ShJuteSgQoFXNCFSjtR6djFLPwJB1KujnHppBKgyQV/WQx6NYDyR73fnWMS1G29/acb4sjs9d1XAlw6VMJuPs6edw57w1d/Y9WFt54YANB27igD0yFqP4GaO6HHxRuHsLrWYTktVubiD5Om6cIuEQhWp9pPhdL6JVZNVbGLln8ijYHRgchyJ54bhCBqFGXTcog8FIDdExji8wRBNWk6EyYI+qWsA5phDwz/9me2QPaWb+EbYzQRRiu2BwZxeW3z2PqlgL+U8HcWbny+57AfpcqbWihb7xrq/RywOv0M6+XTSUmjI/58pb7GPnrkGxS3We+6uySgE1QB9tvp4+suzD9NrIXvpL74t0aOLwea4qzinHcKOxVFO4YuF9yt54Hz3x1pO0sfFaagm10Ia6K6zlRKzHgvzPwX8Vh+Q57uocbjJZVQy4GTNDO/t3WcvK8Aq6rulDdE3DB2h5qJXuXn0XlRJcxz00n0dNj0dj53heC3Oo3l8Pjd1Al9ZcMnNDXegz26Ww4VhzayPhY0d7B8iLQcIgRl8XKkW8Efrcmm3UEVk348JFtSjt6v877er720IVI6f7OIbL0pctqaPu/gFqqK2BX8qfNRQ+1fiqaX11h3Wj3ngv7OxO2j34b/TmSs81ywuuH1rb1riUutEbG4/FALma/N75/VM30Gfg37KH8GLfTto/dsANkQWTkRdcLpUfw9vtLU00ODpOXb0nrQHJGszEQUhy5rV1s/SsrQ/t/5GbIgsmK2+4XDLuwvKMF56gwRND+oZOUS+OT3WFAdnUrU94HMZwClb5Qgt2BW62kDxPiyE3wjxEEVeYRDxheHyCZx1aQ+mqNQdBQQBHxejvVABHQvgrG1vgIXb0iK3u8JLqKgqR/Yby1hWfoctr35Ut0pw1m5Snjv1uzvFCHHAVbraADCsbV+Bjk9FJimL4JYOYQgbxBY4tcIDbii1woEYgtoA/jg9zTILXM4HarNAc1xxJi+vzz/fl8wuVCgJ3duFVGVOQEClDNGb2qXn3g2dMIpk30zlO/OntPxMvpZAcwEX8nvBdJBKUjtK6DDvro4ExP41MeCmZUSitKZRIT83o93swwUFJkV9NYYpTmurCCarF4lVPjyGynHPZY9ZmjiUUIikFkntmWR2UXBIbtgnP3q7u+vG4l04MBWkyruIV59eZRyYE1gLxWos/QHsQkFbIwCe+Vh7JhCeRprb6CWpvHKFwIGNdc2ahstvV8Gm3X/Nodrcga8SPpwpaAOm24TZvEoG4Rrc880rzpiWRNPxak4IBw/IGZkqJDZMVHElRTcwB48l3+BISx/HZKrTaS68ebaAjfbV0+cqT1N4wigbu7C8lT8LjwCiB/SoLKVVV4f9NLhcappk8+OqrJ3PJ6ySPbbihEN2CCXNfiKXUwVZ/YkKVRZWA1s7Xq8eXd5hwJ1teABeQkbNJ8HvwaVRGpd2HWi0js6b51FnlT2Y06u4bOOtYLjuJRPyX22799DdyyYs8rA/uTnE/48a24eLNvxk6NghIqRODFXuXL01cDVNwATmsr6eTgYdhwsj6vdBoDGG9NVBDs+Eq1lCQvS+xMOn6f2LS93XcaX534XQxCr5lOyoGSP/A8w6BVjCRUiZ6BgO7TUNKMrzscu5SM+Cphe0yb6c1PBPoTmtd/hNLdE3/W39/9/X33HNjSYBlBhfQuLmY/B56LKFZMxyvBqGKWFpNd/WF/tVYk7o4HNJaARg6ebamsjW1cE7bYrbH3Lj5YBram0dpXcvw3BvleAS+8hg+t/r2lk/d8BNccrbhzlFGobKxstlO3KiFgnQN5iu/FwLWQkA16Hl9XiNYHdZaQz69AZ7DzDttYGjdNEAWGgsbjZkxGtVXxamldhJewzjpsMmqbI+LYYhuQ0s/2nPw+M/vv//egsw7sA1m1gX24Xbitzo6WYpkrtkiajFC3gJVbYYyNgFfHTytCHq3VbWVqZWRUGZ5OGg0eqRUhVdNU2UgDV83hXWGakJJxCRM6h8N0/BkkC5rG5xVtDm7Ajb1IL64/Hs6mfnDXZ/55CvIcdpZnpO9+Afsw+UyM+Bs6gROJPi+wXgKSolAWRqz7lW4umjmJPbC3rd6b8PqhtG1jVXpRkmRVqQMf/upaLjp5HhVZfdQdagqmJFvfM/hOFzOBDy2BNYxDLf34+cBjgvDPKab5uEjR9747/ceeGAEt7Kn4tlyFmHtDK5VUOhqJ6zugyQ23EPq4BipVdCkA89Ic5zTVZtFJeZgtAB2G8xHG/C0wy4vR1ShAh/neYWh7zv4hPfLEAvln1neMRDne262G7TTgmBAO0lcS0JdMkbmnmco1TvdLV71ReHzRKkV6r3SkGgV1m2g1sQmA9d7sI3gl6Rhvs0ktkOSijlOmBp2Wvbi2MoDrpA3bCPlpU7JgtKxSYTw1wH7u9aIUzugLYfxqAVYDx4DayHn06DvaawF8mnQUR+WGpx8fnHgPLsWzuCyzYU5wE8kaRdvE3Wwq9fDVr4Popejpx6eNshpGI00IMOG4guoqfti1+oZq4BaB5vEEx9eSnkop+7qlIh3zv/2bS73Z/GDJ9BUr1lB10EDb0Z1L8LCIZAkgLLN5RbPkg2tFNBcdnNVnA8gfwASBDyyk/DO/oK+52+7t0sF64IW81HYhwtWzZvIXxki/HYY3QSIYEaTgKezhgKeZQSwlrHlxbkAthA2s0zCKdzwGI69Dj/4rwcelUbZnBhBuurwDmlnMUEU4t62zcKmTSTvD9FmgNuMAg1DRRMAB0W0Io4eAPZDMz04r8MWjGN9HJp7zJDpAObovr7/V9KUQ7tJKB13io1o2baiNWM7XIa7L4zWX9Bt0MZ+aCE3UiFse3GMR2smAPQoYB8zVDoC0EfefBxw4UVwDDg1Rr71W8VKmIr3SypdjfwrICOCfP8phOYUW6ZtzcUFN0xZXXQSphqkfsB5E/bzEIa+Dh18XHqLK8U2mSoptH4LtayRxBrEIzqkEK3GqSZochg9Ylb1GGSMTdvpYrNw/f624eI1vwyl4N9PeR2QduOLr1f3PSkNXdsp1NGjVLMKmolpuCsxkLsWndN2aOgyaHUlICqAiMOWtsdwLXsSCoPGw+lyvWYlINA2XMRYRhSdfo3pYf/Y84ikrbldtK2/XVw7fILWCw9djB7CMrzqVdBuli3QcbB8WzYhgKhbDR56DzgXxIPy49ge3Uu/LwEWrhcBdbaXVt8pmt58TOpft1V0YFD3/bCbV6JRWwYN9EMTwRReA0BizTFxHXDR3OEewmrkfNBeNifsmo0gz8sZQc92PS45jznaK/6C5rYNl0vXsVV8Arr3aWjdMmBiUPxJjA6yiC1imeoxKDjDE8d4UZBXQ74x2OUemIb9eCivHd4uvdFxl6jBGNHaAzuk3Sx7MSXbZmH1FrFRKHQfNJUnxyTgHegWUPi12PcCchj7HoDkcCDPwOjBseMwJ4dw/AjA9x2Cf8vew+qt4moY4U9ABk9oKMPFcP+t0EJ+/Rkc974w/msFZPiHPuKAegLHunGuC5rbBcLDFV4agn22hl/aPyvWdtwhPpjQ6VJocTvMRrOk0D7kX3TJtuYC4BJQgKm0fjWlBuqbAOl90L7XJYPewHSwk+gSjMGDiDMtDqindLpizZ1iLazFCsBchodRDS32onFLQZM5gMP+8qJL9uGa9BjAPgAo47CbfwSsXUmZjne3oAuMwDkavLDso0vW3SXWTXcSmgAvArDcmMnQerRz1kh8FDRrcI6jEIvSW7ANFy/+i1RhdWszcpxe4+D4JZ8X1WuP08fkO8TlgHcRNLgaGu1FJ4GDOfhnra2ADrSVG7oQtD0IyF3oTPyiYQX9d9GpraUztmsFLDwC0UmIjJEHkbGPA9jtONIIaPzHoUZ2x6ypi7C/+Gf5D+zb4hR6ZYg1oCH7a0Cml/dup4kpeXgHFllCXZ0kbs84SaLtduEPKLRUGHQR21ScaQRN1kwMp3EWyuD4OFAPYJjnqEhRVzBIp/Y8wqaBubMsXi++9H+gGByjyiyzjgAAAABJRU5ErkJggg==;" vertex="1" parent="1">
          <mxGeometry x="155.51000000000002" y="330" width="88.98" height="90" as="geometry" />
        </mxCell>
        <mxCell id="groSZJnspkA8zaFrXu-b-25" value="App Container" style="whiteSpace=wrap;html=1;sketch=1;curveFitting=1;jiggle=2;shadow=1;fillColor=#d5e8d4;strokeColor=#82b366;labelPosition=center;verticalLabelPosition=top;align=center;verticalAlign=bottom;fontStyle=1" parent="1" vertex="1">
          <mxGeometry x="145.88" y="520" width="105.67" height="110" as="geometry" />
        </mxCell>
        <mxCell id="groSZJnspkA8zaFrXu-b-26" value="intitContainer" style="whiteSpace=wrap;html=1;sketch=1;curveFitting=1;jiggle=2;shadow=1;fillColor=#dae8fc;strokeColor=#6c8ebf;labelPosition=center;verticalLabelPosition=top;align=center;verticalAlign=bottom;fontStyle=1" parent="1" vertex="1">
          <mxGeometry x="147.16" y="336" width="105.67" height="110" as="geometry" />
        </mxCell>
      </root>
    </mxGraphModel>
  </diagram>
</mxfile>
